# This file uses centimeters as units for non-parametric coordinates.

g default
v 0.952114 -0.084745 0.952114
v 0.406211 -0.084745 0.952114
v 0.285456 -0.084745 0.952114
v -0.285456 -0.084745 0.952114
v -0.406211 -0.084745 0.952114
v -0.952114 -0.084745 0.952114
v 0.952114 -0.084745 0.406211
v 0.952114 -0.084745 0.285456
v 0.406211 -0.084745 0.285456
v 0.406211 -0.084745 0.406211
v 0.285456 -0.084745 0.406211
v 0.285456 -0.084745 0.285456
v -0.285456 -0.084745 0.285456
v -0.285456 -0.084745 0.406211
v -0.406211 -0.084745 0.406211
v -0.406211 -0.084745 0.285456
v -0.952114 -0.084745 0.285456
v -0.952114 -0.084745 0.406211
v 0.952114 -0.084745 -0.285456
v 0.952114 -0.084745 -0.406211
v 0.406211 -0.084745 -0.406211
v 0.406211 -0.084745 -0.285456
v 0.285456 -0.084745 -0.285456
v 0.285456 -0.084745 -0.406211
v -0.285456 -0.084745 -0.406211
v -0.285456 -0.084745 -0.285456
v -0.406211 -0.084745 -0.285456
v -0.406211 -0.084745 -0.406211
v -0.952114 -0.084745 -0.406211
v -0.952114 -0.084745 -0.285456
v 0.952114 -0.084745 -0.952114
v 0.406211 -0.084745 -0.952114
v 0.285456 -0.084745 -0.952114
v -0.285456 -0.084745 -0.952114
v -0.406211 -0.084745 -0.952114
v -0.952114 -0.084745 -0.952114
v 0.406211 -0.031835 0.952114
v 0.952114 -0.031835 0.952114
v 0.406211 -0.031835 0.406211
v 0.952114 -0.031835 0.406211
v -0.285456 -0.031835 0.952114
v 0.285456 -0.031835 0.952114
v -0.285456 -0.031835 0.406211
v 0.285456 -0.031835 0.406211
v -0.952114 -0.031835 0.952114
v -0.406211 -0.031835 0.952114
v -0.952114 -0.031835 0.406211
v -0.406211 -0.031835 0.406211
v 0.406211 -0.031835 0.285456
v 0.952114 -0.031835 0.285456
v 0.406211 -0.031835 -0.285456
v 0.952114 -0.031835 -0.285456
v -0.285456 -0.031835 0.285456
v 0.285456 -0.031835 0.285456
v -0.285456 -0.031835 -0.285456
v 0.285456 -0.031835 -0.285456
v -0.952114 -0.031835 0.285456
v -0.406211 -0.031835 0.285456
v -0.952114 -0.031835 -0.285456
v -0.406211 -0.031835 -0.285456
v 0.406211 -0.031835 -0.406211
v 0.952114 -0.031835 -0.406211
v 0.406211 -0.031835 -0.952114
v 0.952114 -0.031835 -0.952114
v -0.285456 -0.031835 -0.406211
v 0.285456 -0.031835 -0.406211
v -0.285456 -0.031835 -0.952114
v 0.285456 -0.031835 -0.952114
v -0.952114 -0.031835 -0.406211
v -0.406211 -0.031835 -0.406211
v -0.952114 -0.031835 -0.952114
v -0.406211 -0.031835 -0.952114
v 1.000000 -0.084745 1.000000
v 0.406211 -0.084745 1.000000
v 0.285456 -0.084745 1.000000
v -0.285456 -0.084745 1.000000
v -0.406211 -0.084745 1.000000
v -1.000000 -0.084745 1.000000
v -1.000000 -0.084745 0.406211
v -1.000000 -0.084745 0.285456
v -1.000000 -0.084745 -0.285456
v -1.000000 -0.084745 -0.406211
v -1.000000 -0.084745 -1.000000
v -0.406211 -0.084745 -1.000000
v -0.285456 -0.084745 -1.000000
v 0.285456 -0.084745 -1.000000
v 0.406211 -0.084745 -1.000000
v 1.000000 -0.084745 -1.000000
v 1.000000 -0.084745 -0.406211
v 1.000000 -0.084745 -0.285456
v 1.000000 -0.084745 0.285456
v 1.000000 -0.084745 0.406211
vt 0.417766 0.293695
vt 0.417789 0.417711
vt 0.407786 0.407712
vt 0.469498 0.750692
vt 0.293772 0.417734
vt 0.293771 0.407733
vt 0.502245 0.750677
vt 0.616260 0.750694
vt 0.811543 0.750697
vt 0.268552 0.417739
vt 0.149314 0.417761
vt 0.149312 0.407760
vt 0.343392 0.613384
vt 0.457401 0.612235
vt 0.268991 0.750642
vt 0.124094 0.417766
vt 0.000077 0.417789
vt 0.010077 0.407786
vt 0.000054 0.293772
vt 0.010056 0.293771
vt 0.407760 0.268477
vt 0.696176 0.233253
vt 0.417739 0.149237
vt 0.417761 0.268475
vt 0.696149 0.466507
vt 0.556216 0.119238
vt 0.556215 0.000000
vt 0.696189 0.114015
vt 0.556218 0.238477
vt 0.558579 0.347284
vt 0.558593 0.466523
vt 0.556220 0.357715
vt 0.558566 0.233269
vt 0.000050 0.268552
vt 0.000028 0.149314
vt 0.010029 0.149312
vt 0.407733 0.124018
vt 0.689453 0.612220
vt 0.417711 0.000000
vt 0.417734 0.124016
vt 0.917483 0.612183
vt 0.114015 0.750684
vt 0.268477 0.010029
vt 0.575438 0.612238
vt 0.233253 0.750680
vt 0.969096 0.114034
vt 0.124018 0.010056
vt 0.347268 0.750676
vt 0.969080 0.228049
vt 0.000023 0.124094
vt 0.000000 0.000077
vt 0.010003 0.010077
vt 0.293695 0.000023
vt 0.149237 0.000050
vt 0.268475 0.000028
vt 0.124016 0.000054
vt 0.263768 0.263319
vt 0.697526 0.885983
vt 0.811541 0.885984
vt 0.469496 0.885979
vt 0.119244 0.999987
vt 0.383027 0.615372
vt 0.269011 0.615355
vt 0.616280 0.615407
vt 0.352810 0.999995
vt 0.228018 0.479254
vt 0.114009 0.480403
vt 0.456037 0.476954
vt 0.854700 0.731436
vt 0.831463 0.233269
vt 0.831477 0.114030
vt 0.831437 0.466522
vt 0.119238 0.736076
vt 0.420931 0.238478
vt 0.420932 0.357717
vt 0.420927 0.000002
vt 0.972072 0.731419
vt 0.693853 0.233253
vt 0.693839 0.114015
vt 0.693881 0.466507
vt 0.235454 0.999983
vt 0.689431 0.476932
vt 0.575416 0.476951
vt 0.917461 0.476895
vt 0.738487 0.726264
vt 0.233258 0.885968
vt 0.347273 0.885964
vt 0.000005 0.885976
vt 0.470184 0.999994
vt 0.833793 0.228030
vt 0.833776 0.342045
vt 0.833825 0.000000
vt 0.833760 0.456060
vt 0.356177 0.885971
vt 0.356169 0.999986
vt 0.833809 0.114015
vt 0.470192 0.885979
vt 0.972059 0.612180
vt 0.858044 0.612193
vt 0.858057 0.731431
vt 0.693867 0.347268
vt 0.693826 0.000000
vt 0.342028 0.478104
vt 0.352823 0.885980
vt 0.238808 0.885967
vt 0.238795 0.999982
vt 0.000000 0.481553
vt 0.502265 0.615389
vt 0.119238 0.885972
vt 0.000000 0.885978
vt 0.000006 0.999993
vt 0.149773 0.615337
vt 0.420929 0.119240
vt 0.119243 0.616838
vt 0.000005 0.616833
vt 0.000000 0.736071
vt 0.420934 0.476955
vt 0.114020 0.885972
vt 0.738505 0.612249
vt 0.619266 0.612231
vt 0.619249 0.726246
vt 0.466511 0.885959
vt 0.803446 0.476914
vt 0.235436 0.885968
vt 0.121421 0.885985
vt 0.121439 1.000000
vt 0.461401 0.476969
vt 0.831450 0.347284
vt 0.854685 0.612197
vt 0.740670 0.612212
vt 0.740685 0.731450
vt 0.831490 0.000015
vt 0.583511 0.885981
vt 0.263786 0.149304
vt 0.149771 0.149286
vt 0.149753 0.263301
vt 0.925556 0.885986
vt 0.268529 0.293723
vt 0.383006 0.750659
vt 0.268550 0.407738
vt 0.149753 0.750624
vt 0.149291 0.293745
vt 0.697528 0.750695
vt 0.583513 0.750693
vt 0.407764 0.293697
vt 0.925558 0.750699
vt 0.293749 0.293718
vt 0.696163 0.347268
vt 0.407738 0.149238
vt 0.293745 0.268498
vt 0.696202 0.000000
vt 0.293723 0.149259
vt 0.803468 0.612201
vt 0.407712 0.010003
vt 0.293718 0.124039
vt 0.461423 0.612256
vt 0.293697 0.010024
vt 0.000000 0.750688
vt 0.268498 0.124044
vt 0.149259 0.124066
vt 0.466507 0.750672
vt 0.149238 0.010051
vt 0.969113 0.000019
vt 0.124039 0.124071
vt 0.969064 0.342064
vt 0.010024 0.124092
vt 0.969047 0.456079
vt 0.558538 0.000016
vt 0.558552 0.114031
vt 0.124044 0.149291
vt 0.124066 0.268529
vt 0.010051 0.268550
vt 0.229382 0.614534
vt 0.124092 0.407764
vt 0.115373 0.615684
vt 0.001364 0.616833
vt 0.124071 0.293749
vt 0.268524 0.268502
vt 0.268502 0.149264
vt 0.556221 0.476953
vt 0.149264 0.149286
vt 0.149286 0.268524
vn -0.000000 -1.000000 0.000000
vn -0.000000 -1.000000 0.000000
vn -0.000000 -1.000000 0.000000
vn -0.000000 -1.000000 0.000000
vn -0.000000 -1.000000 0.000000
vn -0.000000 -1.000000 0.000000
vn -0.000000 -1.000000 0.000000
vn -0.000000 -1.000000 0.000000
vn -0.000000 -1.000000 0.000000
vn -0.000000 -1.000000 0.000000
vn -0.000000 -1.000000 0.000000
vn -0.000000 -1.000000 0.000000
vn -0.000000 -1.000000 0.000000
vn -0.000000 -1.000000 0.000000
vn -0.000000 -1.000000 0.000000
vn -0.000000 -1.000000 0.000000
vn -0.000000 -1.000000 0.000000
vn -0.000000 -1.000000 0.000000
vn -0.000000 -1.000000 0.000000
vn -0.000000 -1.000000 0.000000
vn -0.000000 -1.000000 0.000000
vn -0.000000 -1.000000 0.000000
vn -0.000000 -1.000000 0.000000
vn -0.000000 -1.000000 0.000000
vn -0.000000 -1.000000 0.000000
vn -0.000000 -1.000000 0.000000
vn -0.000000 -1.000000 0.000000
vn -0.000000 -1.000000 0.000000
vn -0.000000 -1.000000 0.000000
vn -0.000000 -1.000000 0.000000
vn -0.000000 -1.000000 0.000000
vn -0.000000 -1.000000 0.000000
vn -0.000000 -1.000000 0.000000
vn -0.000000 -1.000000 0.000000
vn -0.000000 -1.000000 0.000000
vn -0.000000 -1.000000 0.000000
vn -0.000000 -1.000000 0.000000
vn -0.000000 -1.000000 0.000000
vn -0.000000 -1.000000 0.000000
vn -0.000000 -1.000000 0.000000
vn -0.000000 -1.000000 0.000000
vn -0.000000 -1.000000 0.000000
vn -0.000000 -1.000000 0.000000
vn -0.000000 -1.000000 0.000000
vn -0.000000 -1.000000 0.000000
vn -0.000000 -1.000000 0.000000
vn -0.000000 -1.000000 0.000000
vn -0.000000 -1.000000 0.000000
vn -0.000000 -1.000000 0.000000
vn -0.000000 -1.000000 0.000000
vn -0.000000 -1.000000 0.000000
vn -0.000000 -1.000000 0.000000
vn -0.000000 -1.000000 0.000000
vn -0.000000 -1.000000 0.000000
vn -0.000000 -1.000000 0.000000
vn -0.000000 -1.000000 0.000000
vn -0.000000 -1.000000 0.000000
vn -0.000000 -1.000000 0.000000
vn -0.000000 -1.000000 0.000000
vn -0.000000 -1.000000 0.000000
vn -0.000000 -1.000000 0.000000
vn -0.000000 -1.000000 0.000000
vn -0.000000 -1.000000 0.000000
vn -0.000000 -1.000000 0.000000
vn -0.000000 -1.000000 0.000000
vn -0.000000 -1.000000 0.000000
vn -0.000000 -1.000000 0.000000
vn -0.000000 -1.000000 0.000000
vn -0.000000 -1.000000 0.000000
vn -0.000000 -1.000000 0.000000
vn -0.000000 -1.000000 0.000000
vn -0.000000 -1.000000 0.000000
vn -0.000000 -1.000000 0.000000
vn -0.000000 -1.000000 0.000000
vn -0.000000 -1.000000 0.000000
vn -0.000000 -1.000000 0.000000
vn -0.000000 -1.000000 0.000000
vn -0.000000 -1.000000 0.000000
vn -0.000000 -1.000000 0.000000
vn -0.000000 -1.000000 0.000000
vn -0.000000 -1.000000 0.000000
vn -0.000000 -1.000000 0.000000
vn -0.000000 -1.000000 0.000000
vn -0.000000 -1.000000 0.000000
vn -0.000000 -1.000000 0.000000
vn -0.000000 -1.000000 0.000000
vn -0.000000 -1.000000 0.000000
vn -0.000000 -1.000000 0.000000
vn -0.000000 -1.000000 0.000000
vn -0.000000 -1.000000 0.000000
vn -0.000000 -1.000000 0.000000
vn -0.000000 -1.000000 0.000000
vn -0.000000 -1.000000 0.000000
vn -0.000000 -1.000000 0.000000
vn -0.000000 -1.000000 0.000000
vn -0.000000 -1.000000 0.000000
vn -0.000000 -1.000000 0.000000
vn -0.000000 -1.000000 0.000000
vn -0.000000 -1.000000 0.000000
vn -0.000000 -1.000000 0.000000
vn -0.000000 -1.000000 0.000000
vn -0.000000 -1.000000 0.000000
vn -0.000000 -1.000000 0.000000
vn -0.000000 -1.000000 0.000000
vn -0.000000 -1.000000 0.000000
vn -0.000000 -1.000000 0.000000
vn -0.000000 -1.000000 0.000000
vn -0.000000 -1.000000 0.000000
vn -0.000000 -1.000000 0.000000
vn -0.000000 -1.000000 0.000000
vn -0.000000 -1.000000 0.000000
vn -0.000000 -1.000000 0.000000
vn -0.000000 -1.000000 0.000000
vn -0.000000 -1.000000 0.000000
vn -0.000000 -1.000000 0.000000
vn -0.000000 -1.000000 0.000000
vn -0.000000 0.000000 -1.000000
vn -0.000000 0.000000 -1.000000
vn -0.000000 0.000000 -1.000000
vn -0.000000 0.000000 -1.000000
vn 1.000000 -0.000000 0.000000
vn 1.000000 -0.000000 0.000000
vn 1.000000 -0.000000 0.000000
vn 1.000000 -0.000000 0.000000
vn 0.000000 0.000000 1.000000
vn 0.000000 0.000000 1.000000
vn 0.000000 0.000000 1.000000
vn 0.000000 0.000000 1.000000
vn -1.000000 0.000000 0.000000
vn -1.000000 0.000000 0.000000
vn -1.000000 0.000000 0.000000
vn -1.000000 0.000000 0.000000
vn -0.000000 0.000000 -1.000000
vn -0.000000 0.000000 -1.000000
vn -0.000000 0.000000 -1.000000
vn -0.000000 0.000000 -1.000000
vn 1.000000 -0.000000 0.000000
vn 1.000000 -0.000000 0.000000
vn 1.000000 -0.000000 0.000000
vn 1.000000 -0.000000 0.000000
vn 0.000000 0.000000 1.000000
vn 0.000000 0.000000 1.000000
vn 0.000000 0.000000 1.000000
vn 0.000000 0.000000 1.000000
vn -1.000000 0.000000 0.000000
vn -1.000000 0.000000 0.000000
vn -1.000000 0.000000 0.000000
vn -1.000000 0.000000 0.000000
vn -0.000000 0.000000 -1.000000
vn -0.000000 0.000000 -1.000000
vn -0.000000 0.000000 -1.000000
vn -0.000000 0.000000 -1.000000
vn 1.000000 -0.000000 0.000000
vn 1.000000 -0.000000 0.000000
vn 1.000000 -0.000000 0.000000
vn 1.000000 -0.000000 0.000000
vn 0.000000 0.000000 1.000000
vn 0.000000 0.000000 1.000000
vn 0.000000 0.000000 1.000000
vn 0.000000 0.000000 1.000000
vn -1.000000 0.000000 0.000000
vn -1.000000 0.000000 0.000000
vn -1.000000 0.000000 0.000000
vn -1.000000 0.000000 0.000000
vn -0.000000 0.000000 -1.000000
vn -0.000000 0.000000 -1.000000
vn -0.000000 0.000000 -1.000000
vn -0.000000 0.000000 -1.000000
vn 1.000000 -0.000000 0.000000
vn 1.000000 -0.000000 0.000000
vn 1.000000 -0.000000 0.000000
vn 1.000000 -0.000000 0.000000
vn 0.000000 0.000000 1.000000
vn 0.000000 0.000000 1.000000
vn 0.000000 0.000000 1.000000
vn 0.000000 0.000000 1.000000
vn -1.000000 0.000000 0.000000
vn -1.000000 0.000000 0.000000
vn -1.000000 0.000000 0.000000
vn -1.000000 0.000000 0.000000
vn -0.000000 0.000000 -1.000000
vn -0.000000 0.000000 -1.000000
vn -0.000000 0.000000 -1.000000
vn -0.000000 0.000000 -1.000000
vn 1.000000 -0.000000 0.000000
vn 1.000000 -0.000000 0.000000
vn 1.000000 -0.000000 0.000000
vn 1.000000 -0.000000 0.000000
vn 0.000000 0.000000 1.000000
vn 0.000000 0.000000 1.000000
vn 0.000000 0.000000 1.000000
vn 0.000000 0.000000 1.000000
vn -1.000000 0.000000 0.000000
vn -1.000000 0.000000 0.000000
vn -1.000000 0.000000 0.000000
vn -1.000000 0.000000 0.000000
vn -0.000000 0.000000 -1.000000
vn -0.000000 0.000000 -1.000000
vn -0.000000 0.000000 -1.000000
vn -0.000000 0.000000 -1.000000
vn 1.000000 -0.000000 0.000000
vn 1.000000 -0.000000 0.000000
vn 1.000000 -0.000000 0.000000
vn 1.000000 -0.000000 0.000000
vn 0.000000 0.000000 1.000000
vn 0.000000 0.000000 1.000000
vn 0.000000 0.000000 1.000000
vn 0.000000 0.000000 1.000000
vn -1.000000 0.000000 0.000000
vn -1.000000 0.000000 0.000000
vn -1.000000 0.000000 0.000000
vn -1.000000 0.000000 0.000000
vn -0.000000 0.000000 -1.000000
vn -0.000000 0.000000 -1.000000
vn -0.000000 0.000000 -1.000000
vn -0.000000 0.000000 -1.000000
vn 1.000000 -0.000000 0.000000
vn 1.000000 -0.000000 0.000000
vn 1.000000 -0.000000 0.000000
vn 1.000000 -0.000000 0.000000
vn 0.000000 0.000000 1.000000
vn 0.000000 0.000000 1.000000
vn 0.000000 0.000000 1.000000
vn 0.000000 0.000000 1.000000
vn -1.000000 0.000000 0.000000
vn -1.000000 0.000000 0.000000
vn -1.000000 0.000000 0.000000
vn -1.000000 0.000000 0.000000
vn -0.000000 0.000000 -1.000000
vn -0.000000 0.000000 -1.000000
vn -0.000000 0.000000 -1.000000
vn -0.000000 0.000000 -1.000000
vn 1.000000 -0.000000 0.000000
vn 1.000000 -0.000000 0.000000
vn 1.000000 -0.000000 0.000000
vn 1.000000 -0.000000 0.000000
vn 0.000000 0.000000 1.000000
vn 0.000000 0.000000 1.000000
vn 0.000000 0.000000 1.000000
vn 0.000000 0.000000 1.000000
vn -1.000000 0.000000 0.000000
vn -1.000000 0.000000 0.000000
vn -1.000000 0.000000 0.000000
vn -1.000000 0.000000 0.000000
vn -0.000000 0.000000 -1.000000
vn -0.000000 0.000000 -1.000000
vn -0.000000 0.000000 -1.000000
vn -0.000000 0.000000 -1.000000
vn 1.000000 -0.000000 0.000000
vn 1.000000 -0.000000 0.000000
vn 1.000000 -0.000000 0.000000
vn 1.000000 -0.000000 0.000000
vn 0.000000 0.000000 1.000000
vn 0.000000 0.000000 1.000000
vn 0.000000 0.000000 1.000000
vn 0.000000 0.000000 1.000000
vn -1.000000 0.000000 0.000000
vn -1.000000 0.000000 0.000000
vn -1.000000 0.000000 0.000000
vn -1.000000 0.000000 0.000000
s 1
g pCube2
f 92/1/1 73/2/2 1/3/3 7/145/4
s 2
f 1/3/5 73/2/6 74/5/7 2/6/8
s 3
f 2/6/9 3/140/10 11/138/11 10/147/12
s 2
f 3/140/13 75/10/14 76/11/15 4/12/16
s 3
f 4/12/17 5/174/18 15/177/19 14/142/20
s 2
f 5/174/21 77/16/22 78/17/23 6/18/24
s 5
f 6/18/25 78/17/26 79/19/27 18/20/28
s 3
f 8/21/29 7/145/30 10/147/12 9/150/31
s 1
f 90/23/32 91/24/33 8/21/34 19/149/35
s 3
f 9/150/31 12/178/36 23/179/37 22/152/38
f 12/178/36 11/138/11 14/142/20 13/182/39
f 13/182/39 16/171/40 27/170/41 26/181/42
f 16/171/40 15/177/19 18/20/43 17/172/44
s 5
f 17/172/45 80/34/46 81/35/47 30/36/48
s 3
f 20/37/49 19/149/50 22/152/38 21/155/51
s 1
f 88/39/52 89/40/53 20/37/54 31/154/55
s 3
f 21/155/51 24/159/56 33/43/57 32/157/58
f 24/159/56 23/179/37 26/181/42 25/160/59
f 25/160/59 28/164/60 35/47/61 34/162/62
f 28/164/60 27/170/41 30/36/63 29/166/64
s 5
f 29/166/65 82/50/66 83/51/67 36/52/68
s 6
f 87/53/69 88/39/70 31/154/71 32/157/72
f 85/54/73 86/55/74 33/43/75 34/162/76
f 83/51/77 84/56/78 35/47/79 36/52/80
s off
f 38/57/81 37/136/82 39/135/83 40/134/84
f 42/61/85 41/111/86 43/110/87 44/109/88
f 46/65/89 45/106/90 47/105/91 48/104/92
f 50/69/93 49/131/94 51/130/95 52/129/96
f 54/73/97 53/116/98 55/115/99 56/114/100
f 58/77/101 57/100/102 59/99/103 60/98/104
f 62/81/105 61/126/106 63/125/107 64/124/108
f 66/85/109 65/121/110 67/120/111 68/119/112
f 70/89/113 69/95/114 71/94/115 72/97/116
s 2
f 2/6/8 74/5/7 75/10/14 3/140/13
f 4/12/16 76/11/15 77/16/22 5/174/21
s 1
f 91/24/33 92/1/1 7/145/4 8/21/34
s 3
f 9/150/31 10/147/12 11/138/11 12/178/36
f 13/182/39 14/142/20 15/177/19 16/171/40
s 5
f 79/19/27 80/34/46 17/172/45 18/20/28
s 1
f 89/40/53 90/23/32 19/149/35 20/37/54
s 3
f 21/155/51 22/152/38 23/179/37 24/159/56
f 25/160/59 26/181/42 27/170/41 28/164/60
s 5
f 81/35/47 82/50/66 29/166/65 30/36/48
s 6
f 86/55/74 87/53/69 32/157/72 33/43/75
f 84/56/78 85/54/73 34/162/76 35/47/79
s off
f 1/144/117 2/143/118 37/58/119 38/133/120
f 2/143/121 10/9/122 39/59/123 37/58/124
f 10/9/125 7/146/126 40/137/127 39/59/128
f 7/4/129 1/144/130 38/133/131 40/60/132
f 3/7/133 4/139/134 41/62/135 42/108/136
f 4/139/137 14/15/138 43/63/139 41/62/140
f 14/15/141 11/141/142 44/112/143 43/63/144
f 11/8/145 3/7/146 42/108/147 44/64/148
f 5/13/149 6/173/150 45/66/151 46/103/152
f 6/173/153 18/175/154 47/67/155 45/66/156
f 18/175/157 15/176/158 48/107/159 47/67/160
f 15/14/161 5/13/162 46/103/163 48/68/164
f 8/148/165 9/22/166 49/70/167 50/128/168
f 9/22/169 22/28/170 51/71/171 49/70/172
f 22/28/173 19/151/174 52/132/175 51/71/176
f 19/25/177 8/148/178 50/128/179 52/72/180
f 12/26/181 13/29/182 53/74/183 54/113/184
f 13/29/185 26/32/186 55/75/187 53/74/188
f 26/32/189 23/180/190 56/117/191 55/75/192
f 23/27/193 12/26/194 54/113/195 56/76/196
f 16/30/197 17/33/198 57/78/199 58/101/200
f 17/33/201 30/169/202 59/79/203 57/78/204
f 30/169/205 27/168/206 60/102/207 59/79/208
f 27/31/209 16/30/210 58/101/211 60/80/212
f 20/153/213 21/38/214 61/82/215 62/123/216
f 21/38/217 32/44/218 63/83/219 61/82/220
f 32/44/221 31/156/222 64/127/223 63/83/224
f 31/41/225 20/153/226 62/123/227 64/84/228
f 24/42/229 25/45/230 65/86/231 66/118/232
f 25/45/233 34/48/234 67/87/235 65/86/236
f 34/48/237 33/161/238 68/122/239 67/87/240
f 33/158/241 24/42/242 66/118/243 68/88/244
f 28/46/245 29/49/246 69/90/247 70/96/248
f 29/49/249 36/165/250 71/91/251 69/90/252
f 36/165/253 35/167/254 72/93/255 71/91/256
f 35/163/257 28/46/258 70/96/259 72/92/260
