# This file uses centimeters as units for non-parametric coordinates.

g default
v -1.000000 0.300890 -0.015328
v 1.000000 0.300890 -0.015328
v -1.000000 0.260502 -0.015328
v 1.000000 0.260502 -0.015328
v 1.000000 0.067045 0.039584
v -1.000000 0.067045 0.039584
v 1.000000 -0.000000 0.039584
v -1.000000 -0.000000 0.039584
v 1.000000 -0.000000 -0.020011
v -1.000000 -0.000000 -0.020011
v 1.000000 0.107786 -0.020011
v -1.000000 0.107786 -0.020011
v -1.000000 0.107786 0.039584
v 1.000000 0.107786 0.039584
v 1.000000 0.073838 0.053171
v 1.000000 0.067045 0.046378
v -1.000000 0.073838 0.053171
v -1.000000 0.067045 0.046378
v 1.000000 0.100993 0.053171
v 1.000000 0.107786 0.046378
v -1.000000 0.100993 0.053171
v -1.000000 0.107786 0.046378
v -1.000000 2.000000 -0.024848
v 1.000000 2.000000 -0.024848
v -1.000000 1.929026 -0.024848
v 1.000000 1.929026 -0.024848
v -1.000000 0.260502 0.045550
v -1.000000 0.270598 0.055646
v 1.000000 0.260502 0.045550
v 1.000000 0.270598 0.055646
v -1.000000 0.300890 0.045550
v -1.000000 0.290794 0.055646
v 1.000000 0.300890 0.045550
v 1.000000 0.290794 0.055646
v -1.000000 1.929026 0.036030
v -1.000000 1.939122 0.046126
v 1.000000 1.929026 0.036030
v 1.000000 1.939122 0.046126
v -1.000000 2.000000 0.036030
v -1.000000 1.989904 0.046126
v 1.000000 2.000000 0.036030
v 1.000000 1.989904 0.046126
v -1.000000 0.100993 0.015000
v 1.000000 0.100993 0.015000
v -1.000000 1.939122 0.015000
v 1.000000 1.939122 0.015000
vt 0.000000 0.961174
vt 0.814262 0.961179
vt 0.814262 0.969402
vt 0.000000 0.969396
vt 0.000000 0.975209
vt 0.814262 0.975215
vt 0.814262 1.000000
vt 0.000000 0.999995
vt 0.000000 0.930575
vt 0.814263 0.930581
vt 0.814263 0.955366
vt 0.000000 0.955361
vt 0.814269 0.800036
vt 0.000007 0.799919
vt 0.000011 0.772623
vt 0.814273 0.772740
vt 0.000014 0.748360
vt 0.814277 0.748477
vt 0.814262 0.848709
vt 0.000000 0.848592
vt 0.000003 0.824329
vt 0.814266 0.824446
vt 0.000006 0.806596
vt 0.814268 0.806713
vt 0.814267 0.817769
vt 0.000004 0.817652
vt 0.814269 0.802802
vt 0.000007 0.802685
vt 0.000004 0.821563
vt 0.814266 0.821680
vt 0.000005 0.879232
vt 0.814267 0.879308
vt 0.814265 0.899983
vt 0.000003 0.899907
vt 0.000002 0.905720
vt 0.814265 0.905796
vt 0.814262 0.930581
vt 0.000000 0.930505
vt 0.000008 0.848634
vt 0.814270 0.848709
vt 0.814268 0.873495
vt 0.000005 0.873419
vt 0.000011 0.000000
vt 0.814273 0.000012
vt 0.814262 0.748371
vt 0.000000 0.748360
vn 0.000000 0.000000 1.000000
vn 0.000000 0.000000 1.000000
vn 0.000000 0.000000 1.000000
vn 0.000000 0.000000 1.000000
vn 0.000000 1.000000 0.000000
vn 0.000000 1.000000 0.000000
vn 0.000000 1.000000 0.000000
vn 0.000000 1.000000 0.000000
vn 0.000000 -1.000000 0.000000
vn 0.000000 -1.000000 0.000000
vn 0.000000 -1.000000 0.000000
vn 0.000000 -1.000000 0.000000
vn 0.000000 0.000000 1.000000
vn 0.000000 0.000000 1.000000
vn 0.000000 0.000000 1.000000
vn 0.000000 0.000000 1.000000
vn 0.000000 -1.000000 0.000000
vn 0.000000 -1.000000 0.000000
vn 0.000000 -1.000000 0.000000
vn 0.000000 -1.000000 0.000000
vn 0.000000 1.000000 0.000000
vn 0.000000 1.000000 0.000000
vn 0.000000 1.000000 0.000000
vn 0.000000 1.000000 0.000000
vn 0.000000 0.000000 1.000000
vn 0.000000 0.000000 1.000000
vn 0.000000 0.000000 1.000000
vn 0.000000 0.000000 1.000000
vn 0.000000 -1.000000 0.000000
vn 0.000000 -1.000000 0.000000
vn 0.000000 -1.000000 0.000000
vn 0.000000 -1.000000 0.000000
vn 0.000000 1.000000 0.000000
vn 0.000000 1.000000 0.000000
vn 0.000000 1.000000 0.000000
vn 0.000000 1.000000 0.000000
vn 0.000000 -0.707106 0.707107
vn 0.000000 -0.707106 0.707107
vn 0.000000 -0.707106 0.707107
vn 0.000000 -0.707106 0.707107
vn 0.000000 0.707107 0.707107
vn 0.000000 0.707107 0.707107
vn 0.000000 0.707107 0.707107
vn 0.000000 0.707107 0.707107
vn 0.000000 0.000000 1.000000
vn 0.000000 0.000000 1.000000
vn 0.000000 0.000000 1.000000
vn 0.000000 0.000000 1.000000
vn 0.000000 1.000000 0.000000
vn 0.000000 1.000000 0.000000
vn 0.000000 1.000000 0.000000
vn 0.000000 1.000000 0.000000
vn 0.000000 -1.000000 0.000000
vn 0.000000 -1.000000 0.000000
vn 0.000000 -1.000000 0.000000
vn 0.000000 -1.000000 0.000000
vn 0.000000 -0.707106 0.707107
vn 0.000000 -0.707106 0.707107
vn 0.000000 -0.707106 0.707107
vn 0.000000 -0.707106 0.707107
vn 0.000000 0.707106 0.707107
vn 0.000000 0.707106 0.707107
vn 0.000000 0.707106 0.707107
vn 0.000000 0.707106 0.707107
vn 0.000000 -0.707106 0.707107
vn 0.000000 -0.707106 0.707107
vn 0.000000 -0.707106 0.707107
vn 0.000000 -0.707106 0.707107
vn 0.000000 0.707106 0.707107
vn 0.000000 0.707106 0.707107
vn 0.000000 0.707106 0.707107
vn 0.000000 0.707106 0.707107
vn 0.000000 0.000000 1.000000
vn 0.000000 0.000000 1.000000
vn 0.000000 0.000000 1.000000
vn 0.000000 0.000000 1.000000
s off
g pCube6
f 28/1/1 30/2/2 34/3/3 32/4/4
f 31/5/5 33/6/6 2/7/7 1/8/8
f 3/9/9 4/10/10 29/11/11 27/12/12
f 5/13/13 6/14/14 8/15/15 7/16/16
f 7/16/17 8/15/18 10/17/19 9/18/20
f 11/19/21 12/20/22 13/21/23 14/22/24
f 17/23/25 15/24/26 19/25/27 21/26/28
f 6/14/29 5/13/30 16/27/31 18/28/32
f 14/22/33 13/21/34 22/29/35 20/30/36
f 16/27/37 15/24/38 17/23/39 18/28/40
f 19/25/41 20/30/42 22/29/43 21/26/44
f 36/31/45 38/32/46 42/33/47 40/34/48
f 39/35/49 41/36/50 24/37/51 23/38/52
f 25/39/53 26/40/54 37/41/55 35/42/56
f 28/1/57 27/12/58 29/11/59 30/2/60
f 31/5/61 32/4/62 34/3/63 33/6/64
f 36/31/65 35/42/66 37/41/67 38/32/68
f 39/35/69 40/34/70 42/33/71 41/36/72
f 43/43/73 44/44/74 46/45/75 45/46/76
